<svg version="1.0" xmlns="http://www.w3.org/2000/svg" width="346.667" height="346.667" viewBox="0 0 260 260"><path d="M97 19.1c-1.9.4-5.1 1-7 1.3-5.6.8-18.5 5.3-25.8 8.9C34.3 44.1 11 72.9 3.9 103.9 1.3 115.4.7 119.7.6 131.5c-.2 9 .1 12.6 1.9 23 3.4 21.2 16.5 44.4 33.7 59.9 6.6 6 18.8 14.6 20.7 14.6.6 0 1.1.4 1.1.8s1.2 1.3 2.8 1.9c1.5.6 5.9 2.4 9.7 4.1 5.7 2.4 11.5 4.1 18.8 5.8.4.1.8.2 1 .3.5.4 12 2 14.7 2.1.8 0 3.3.1 5.5.1 5.9.2 6.5.2 13-.5 11.2-1.2 15.2-2.1 25-5.3 17.2-5.6 32.1-14.8 45-27.7 7.5-7.5 16.5-19.2 16.5-21.5 0-.5.3-1.1.8-1.3 1-.5 8.2-15.5 8.6-18.2.1-.6.5-1.6.8-2.2.4-.6.9-2.2 1.2-3.7.3-1.5.7-3.5 1-4.5.5-1.6 1.3-6.4 2.2-12.7.3-1.7.5-10.7.5-20 0-23.6 1.9-29.1 11.4-33.7 4.1-2.1 13.5-3.9 21.1-4.1.8 0 1.2-3.2 1.1-10v-9.9l-8.6.7c-9.5.8-9.9.8-16.1 2.5-5.2 1.4-13.8 6.1-16.4 8.9-2.3 2.5-3 2.1-5.3-2.7-.9-2-2.1-4.2-2.5-4.7-.5-.6-2.7-3.9-5.1-7.5-2.3-3.6-8-10.3-12.7-15-12.6-12.5-27.5-21.9-43-27-3.6-1.1-7.2-2.3-8-2.7-.8-.3-2.6-.7-4-.9-1.4-.1-5-.7-8-1.2-6.3-1.1-26.8-1.2-32-.1zm34.5 10.4c6.5 1.1 19.5 5.5 26 8.7 21.8 10.9 41.4 31.4 48.9 50.9 1.7 4.3 1.7 4.9.1 10.4-1.3 4.4-1.8 10.8-2 26.4-.4 20.3-.6 22.7-2.7 30.6-.5 2.2-1.2 4.9-1.4 5.9-.7 3.5-8.4 18.3-12.5 23.7-17.8 24-42.8 36.8-74.2 38.2-2.6.2-5 .1-5.2-.1-.2-.3-2.5-.6-5.1-.8-5.4-.3-12.6-1.9-19.9-4.2-2.7-.9-5.3-1.5-5.7-1.4-.5.1-.8-.2-.8-.8 0-.5-.7-1-1.6-1-.8 0-4.1-1.4-7.2-3.1-20.1-11.1-32.7-25.8-41.5-47.9-3-7.6-5.7-18.5-4.8-19.7 1-1.5 7.2-.9 8.1.7.4.8 1.7 5.1 2.9 9.4 6.8 24.9 24.9 44.7 49.8 54.5 2.9 1.1 6.3 2.3 7.5 2.5 1.3.3 3.4.8 4.8 1.1 11.1 2.5 26.3 2.5 37.5 0 5.5-1.2 16.9-5.8 22-8.8 19.4-11.4 33.5-29.9 39-51.2 2.4-9.2 3-45.1.9-53.3-2.8-10.9-10.4-20.1-20.8-25.2-6.3-3.1-8.2-3.7-15.1-4.7-5-.7-15.5-.7-16.2.1-.7.7-1 16.5-.3 17.6.3.5 3.4 1.1 7 1.4 9.7.9 11.1 1.3 15.8 3.5 5 2.5 8.9 8 10 14.1.8 4.8.8 31.3-.1 36.7-2.9 17.9-13.4 33.6-27.9 42.2-13.3 7.8-31.9 11.6-44.3 9.1-2.7-.6-6-1.2-7.3-1.5-3.6-.7-14.2-6.3-20.1-10.7-10.7-8-17.5-17-21.1-27.9-2.9-8.4-3.1-9.9-1.7-10 7.2-.7 7-.8 9.4 6 4.1 11.8 13.7 23.5 23.3 28.3 2.5 1.3 4.7 2.5 5 2.8.3.3 2.5 1.2 5 1.9s5.2 1.6 6 1.9c2.3.7 4.9 1 11.5 1.2 5.3.1 8.5-.3 17.3-2.4C135 183.4 145 177 151 171c7.5-7.4 12.1-15.6 14.2-25 1.7-7.6 1.4-18.7-.5-20.6-.6-.6-27.1-.9-43.9-.5l-3.8.1v5.2c0 2.9-.4 5.8-.8 6.4-1.3 1.9-4.1 2.3-5.7.8-1.6-1.7-1.8-2.8-1.6-8.7l.1-3.7-4.2-.1h-49c-33.6 0-44.8-.3-44.9-1.2-.2-1.7-.2-1.7.6-6.7.4-2.5.8-5.4.9-6.5.2-1.1.5-2.7.8-3.5.3-.8 1.5-4.7 2.7-8.5 6.9-21.3 21.9-40.9 41.2-53.6 8.4-5.5 20-10.9 27.4-12.8 2.2-.6 4.3-1.1 4.7-1.2 9-2.6 31-3.3 42.3-1.4zM160 77.4c12.2 2.4 20.9 8.8 25.8 19.2 2.7 5.8 2.7 6.1 2.8 27.9.1 13.2-.3 22.5-.9 23.2-.5.7-.7 1.3-.4 1.3.4 0 0 1.8-.8 4s-1.5 4.4-1.6 4.8c-.9 4.3-5 12.4-9.5 18.7-11.1 15.8-28.9 27.4-47.3 30.9-7 1.3-21.7 1.4-28.6.2-19.4-3.4-38.8-15.6-49.4-30.9-4.8-7-12-23.5-11.3-26 .1-.4-.2-1.6-.7-2.6-.6-1-1.3-3.3-1.6-5.2-.3-1.9-1-3.7-1.4-4.2-1.3-1.3-22.5-1.2-21.7.2.3.5.8 2.6 1.1 4.6 1.2 9.3 1.8 12.4 4.2 19.5 11 33.3 36.6 56.9 69.6 64.5.9.2 2 .6 2.5.8 3.1 2 31.7 2.9 39.2 1.3 8.8-1.8 11.9-2.6 14.6-3.7 3.4-1.4 4.9-1.9 5.9-1.9.3 0 4-1.8 8.2-4.1 24.1-12.7 41.4-33.4 48.6-57.9 3.6-12 3.9-15 4.2-37.5.3-20.6 1.5-28.3 5-31.9.8-.8 1.5-1.7 1.5-2.1 0-.3 1.6-2.1 3.5-4 5.9-5.5 15.3-9.1 26.3-9.9 4-.3 4.2-.2 4.2 2.5 0 3.4-.2 3.6-6.5 4.3-6.1.6-10.9 2.2-15.5 5.1-4.7 3-6.5 5.2-9.1 11-2 4.5-2.2 6.9-2.5 25-.2 11-.5 21.3-.8 23-.3 1.6-.8 4.6-1 6.5-.6 4.8-4.9 17.6-8.1 24.4-9.3 19.7-26.7 37.4-46.1 46.9-6.4 3.2-16.8 7.2-21.1 8.2-1 .3-3.6.9-5.8 1.4-5.1 1.3-15.6 2.4-22 2.4-35.3-.2-67.3-16.6-88.1-45.2-2.4-3.4-4.1-6.1-3.8-6.1.4 0 0-.8-.8-1.8-4-4.7-9.6-20.1-12.3-34.2-.8-4.2-1.5-15.4-1-17 .4-1.3 6.5-1.5 47.1-1.5h46.7l1.2 4.8c.7 2.6 1.4 4.9 1.6 5 8.6 6.8 17.7 3.9 19.5-6.1.3-1.5.8-2.9 1-3.2 1.1-1 34.4-.6 34.7.5.5 1.2 0 10-.7 13.2-2.3 10.5-13.6 24.2-24.1 29.2-9 4.3-11.9 5-20.5 5.3-22 .8-43.8-16.4-47.5-37.4-1-5.3-.4-5.1-17.2-4.9-5.8.1-6.2.2-5.8 2.3.3 1.2.7 3.9 1 6 1.1 7 4.7 16.3 9.1 23.5 4.5 7.2 17.4 20.3 20 20.3.8 0 1.4.4 1.4.8 0 1 11.3 6.8 16.1 8.3 13.6 4.2 31.1 4.3 41.9.2.8-.3 2.1-.7 2.8-.9 2.6-.5 14.3-6.4 18.4-9.2 6.3-4.4 13.6-11.9 17.3-17.7 3.2-5.1 7.2-14.2 8-18.3.2-1.2.6-2.6.9-3 1.7-2.9 2.5-30.5 1.2-42.9-1-9-6.5-17.3-14.1-20.8-3.4-1.6-10.4-3.3-15.5-3.8-2.9-.3-3.5-.7-3.5-2.8-.1-1.3.4-2.7 1-3.1.9-.7 5.5-.4 10.5.6z"/><path d="M73.9 138.4c-.1.6-.1 2 0 3.1s.3 3 .3 4.2c.1 1.3.6 2.3 1.2 2.3.5 0 .6.3.3.7-1 1 4.2 9.3 8.2 13.1 13.5 12.8 32.9 15.3 49.2 6.5 11.9-6.4 20.6-20 18.5-28.8-.5-1.8-1.3-2-9.7-2-9.9.1-9.5-.1-15.9 8.2-5.9 7.8-21.1 7.7-26.6-.2-5.6-7.9-5.1-7.7-15.7-7.9-6.3-.2-9.7.1-9.8.8zm18 8.6c5.8 8.7 14.7 12.4 26.9 11 1.7-.3 3.2-.9 3.2-1.4 0-.5.3-.6.7-.3.7.8 7.2-3.8 9.2-6.7 3.2-4.3 4.7-5.2 8.7-5 2.1.1 4 .2 4.2.3.9.4-4.5 8.6-7.9 12-8.9 8.7-21.6 12-33.1 8.6-7.9-2.3-16.6-8.9-20-15.2-1.6-2.8-2.8-5.3-2.8-5.6 0-.3 2.1-.5 4.7-.3 3.6.2 5 .8 6.2 2.6z"/></svg>