<svg width="266" height="71" fill="none" xmlns="http://www.w3.org/2000/svg"><path fill="#6A6A6A" d="M4 49h35v4H4z"/><path fill="#949494" d="M0 60h44v2H0z"/><path fill="#949494" d="M0 60h44v2H0z"/><path fill="#949494" d="M0 60h44v2H0zM0 65h44v2H0z"/><path fill="#949494" d="M0 65h44v2H0z"/><path fill="#949494" d="M0 65h44v2H0z"/><path d="M20.5 5l3.256 8.983H34.29l-8.523 5.551 3.256 8.983-8.523-5.551-8.523 5.551 3.256-8.983-8.523-5.551h10.534L20.5 5z" fill="#B5B5B5"/><path fill="#6A6A6A" d="M66 48h35v4H66z"/><path fill="#949494" d="M62 59h44v2H62z"/><path fill="#949494" d="M62 59h44v2H62z"/><path fill="#949494" d="M62 59h44v2H62zM62 64h44v2H62z"/><path fill="#949494" d="M62 64h44v2H62z"/><path fill="#949494" d="M62 64h44v2H62z"/><path d="M82.5 4l3.255 8.983H96.29l-8.523 5.551 3.256 8.983-8.523-5.551-8.523 5.551 3.256-8.983-8.523-5.551h10.535L82.5 4z" fill="#B5B5B5"/><path fill="#6A6A6A" d="M183 4h35v4h-35z"/><path fill="#949494" d="M183 14h83v2h-83z"/><path fill="#949494" d="M183 14h83v2h-83z"/><path fill="#949494" d="M183 14h83v2h-83zM183 19h83v2h-83z"/><path fill="#949494" d="M183 19h83v2h-83z"/><path fill="#949494" d="M183 19h83v2h-83z"/><path fill="#6A6A6A" d="M183 49h35v4h-35z"/><path fill="#949494" d="M183 59h83v2h-83z"/><path fill="#949494" d="M183 59h83v2h-83z"/><path fill="#949494" d="M183 59h83v2h-83zM183 64h83v2h-83z"/><path fill="#949494" d="M183 64h83v2h-83z"/><path fill="#949494" d="M183 64h83v2h-83z"/><path d="M154.5 0l3.255 8.983h10.535l-8.523 5.551 3.256 8.983-8.523-5.551-8.523 5.551 3.256-8.983-8.523-5.551h10.535L154.5 0zM155.5 45l3.255 8.983h10.535l-8.523 5.551 3.256 8.983-8.523-5.551-8.523 5.551 3.256-8.983-8.523-5.551h10.535L155.5 45z" fill="#B5B5B5"/></svg>