<svg width="220" height="99" fill="none" xmlns="http://www.w3.org/2000/svg"><path fill="#E2E2E2" d="M0 0h105v47H0z"/><path fill="#6A6A6A" d="M13 15h35v4H13z"/><path fill="#949494" d="M9 26h44v2H9z"/><path fill="#949494" d="M9 26h44v2H9z"/><path fill="#949494" d="M9 26h44v2H9zM9 31h44v2H9z"/><path fill="#949494" d="M9 31h44v2H9z"/><path fill="#949494" d="M9 31h44v2H9z"/><path d="M81.5 10l3.255 8.983H95.29l-8.523 5.551 3.256 8.983-8.523-5.551-8.523 5.551 3.256-8.983-8.523-5.551h10.535L81.5 10z" fill="#B5B5B5"/><path fill="#E2E2E2" d="M0 51h105v47H0z"/><path fill="#6A6A6A" d="M13 66h35v4H13z"/><path fill="#949494" d="M9 77h44v2H9z"/><path fill="#949494" d="M9 77h44v2H9z"/><path fill="#949494" d="M9 77h44v2H9zM9 82h44v2H9z"/><path fill="#949494" d="M9 82h44v2H9z"/><path fill="#949494" d="M9 82h44v2H9z"/><path d="M81.5 61l3.255 8.983H95.29l-8.523 5.551 3.256 8.983-8.523-5.551-8.523 5.551 3.256-8.983-8.523-5.551h10.535L81.5 61z" fill="#B5B5B5"/><path fill="#E2E2E2" d="M115 0h105v47H115z"/><path fill="#6A6A6A" d="M128 15h35v4h-35z"/><path fill="#949494" d="M124 26h44v2h-44z"/><path fill="#949494" d="M124 26h44v2h-44z"/><path fill="#949494" d="M124 26h44v2h-44zM124 31h44v2h-44z"/><path fill="#949494" d="M124 31h44v2h-44z"/><path fill="#949494" d="M124 31h44v2h-44z"/><path d="M196.5 10l3.255 8.983h10.535l-8.523 5.551 3.256 8.983-8.523-5.551-8.523 5.551 3.256-8.983-8.523-5.551h10.535L196.5 10z" fill="#B5B5B5"/><path fill="#E2E2E2" d="M115 52h105v47H115z"/><path fill="#6A6A6A" d="M128 67h35v4h-35z"/><path fill="#949494" d="M124 78h44v2h-44z"/><path fill="#949494" d="M124 78h44v2h-44z"/><path fill="#949494" d="M124 78h44v2h-44zM124 83h44v2h-44z"/><path fill="#949494" d="M124 83h44v2h-44z"/><path fill="#949494" d="M124 83h44v2h-44z"/><path d="M196.5 62l3.255 8.983h10.535l-8.523 5.551 3.256 8.983-8.523-5.551-8.523 5.551 3.256-8.983-8.523-5.551h10.535L196.5 62z" fill="#B5B5B5"/></svg>