<svg width="287" height="88" fill="none" xmlns="http://www.w3.org/2000/svg"><path fill="#E2E2E2" d="M0 0h65v88H0zM74 0h65v88H74zM148 0h65v88h-65zM222 0h65v88h-65z"/><path fill="#6A6A6A" d="M15 62h35v4H15z"/><path fill="#949494" d="M11 73h44v2H11z"/><path fill="#949494" d="M11 73h44v2H11z"/><path fill="#949494" d="M11 73h44v2H11zM11 78h44v2H11z"/><path fill="#949494" d="M11 78h44v2H11z"/><path fill="#949494" d="M11 78h44v2H11z"/><path fill="#C4C4C4" d="M8 8h49v43H8z"/><path d="M31.5 18l3.255 8.983H45.29l-8.523 5.551 3.256 8.983-8.523-5.551-8.523 5.551 3.256-8.983-8.523-5.551h10.534L31.5 18z" fill="#B5B5B5"/><path fill="#6A6A6A" d="M89 62h35v4H89z"/><path fill="#949494" d="M85 73h44v2H85z"/><path fill="#949494" d="M85 73h44v2H85z"/><path fill="#949494" d="M85 73h44v2H85zM85 78h44v2H85z"/><path fill="#949494" d="M85 78h44v2H85z"/><path fill="#949494" d="M85 78h44v2H85z"/><path fill="#C4C4C4" d="M82 8h49v43H82z"/><path d="M105.5 18l3.255 8.983h10.535l-8.523 5.551 3.256 8.983-8.523-5.551-8.523 5.551 3.256-8.983-8.523-5.551h10.535L105.5 18z" fill="#B5B5B5"/><path fill="#6A6A6A" d="M163 62h35v4h-35z"/><path fill="#949494" d="M159 73h44v2h-44z"/><path fill="#949494" d="M159 73h44v2h-44z"/><path fill="#949494" d="M159 73h44v2h-44zM159 78h44v2h-44z"/><path fill="#949494" d="M159 78h44v2h-44z"/><path fill="#949494" d="M159 78h44v2h-44z"/><path fill="#C4C4C4" d="M156 8h49v43h-49z"/><path d="M179.5 18l3.255 8.983h10.535l-8.523 5.551 3.256 8.983-8.523-5.551-8.523 5.551 3.256-8.983-8.523-5.551h10.535L179.5 18z" fill="#B5B5B5"/><path fill="#6A6A6A" d="M237 62h35v4h-35z"/><path fill="#949494" d="M233 73h44v2h-44z"/><path fill="#949494" d="M233 73h44v2h-44z"/><path fill="#949494" d="M233 73h44v2h-44zM233 78h44v2h-44z"/><path fill="#949494" d="M233 78h44v2h-44z"/><path fill="#949494" d="M233 78h44v2h-44z"/><path fill="#C4C4C4" d="M230 8h49v43h-49z"/><path d="M253.5 18l3.255 8.983h10.535l-8.523 5.551 3.256 8.983-8.523-5.551-8.523 5.551 3.256-8.983-8.523-5.551h10.535L253.5 18z" fill="#B5B5B5"/></svg>