<svg width="280" height="89" fill="none" xmlns="http://www.w3.org/2000/svg"><path fill="#E2E2E2" d="M0 0h65v88H0z"/><path fill="#6A6A6A" d="M15 67h35v4H15z"/><path fill="#949494" d="M11 78h44v2H11z"/><path fill="#949494" d="M11 78h44v2H11z"/><path fill="#949494" d="M11 78h44v2H11z"/><path fill="#E2E2E2" d="M73 0h65v88H73z"/><path fill="#6A6A6A" d="M88 67h35v4H88z"/><path fill="#949494" d="M84 78h44v2H84z"/><path fill="#949494" d="M84 78h44v2H84z"/><path fill="#949494" d="M84 78h44v2H84z"/><path fill="#E2E2E2" d="M144 1h65v88h-65z"/><path fill="#6A6A6A" d="M159 68h35v4h-35z"/><path fill="#949494" d="M155 79h44v2h-44z"/><path fill="#949494" d="M155 79h44v2h-44z"/><path fill="#949494" d="M155 79h44v2h-44z"/><path fill="#E2E2E2" d="M215 1h65v88h-65z"/><path fill="#6A6A6A" d="M230 68h35v4h-35z"/><path fill="#949494" d="M226 79h44v2h-44z"/><path fill="#949494" d="M226 79h44v2h-44z"/><path fill="#949494" d="M226 79h44v2h-44z"/></svg>