<svg width="237" height="377" fill="none" xmlns="http://www.w3.org/2000/svg"><path fill="#E2E2E2" d="M0 318h237v59H0zM2 48h53.223v72.056H2zM62.592 48h53.223v72.056H62.592zM123.185 48h53.223v72.056h-53.223zM183.777 48H237v72.056h-53.223z"/><path fill="#6A6A6A" d="M14.282 98.767h28.659v3.275H14.282z"/><path fill="#949494" d="M11.007 107.774h36.028v1.638H11.007z"/><path fill="#949494" d="M11.007 107.774h36.028v1.638H11.007z"/><path fill="#949494" d="M11.007 107.774h36.028v1.638H11.007z"/><path fill="#C4C4C4" d="M8.55 54.55h40.122v35.209H8.55z"/><path fill="#6A6A6A" d="M74.874 98.767h28.659v3.275H74.874z"/><path fill="#949494" d="M71.599 107.774h36.028v1.638H71.599z"/><path fill="#949494" d="M71.599 107.774h36.028v1.638H71.599z"/><path fill="#949494" d="M71.599 107.774h36.028v1.638H71.599z"/><path fill="#C4C4C4" d="M69.143 54.55h40.122v35.209H69.143z"/><path fill="#6A6A6A" d="M135.467 98.767h28.659v3.275h-28.659z"/><path fill="#949494" d="M132.191 107.774h36.028v1.638h-36.028z"/><path fill="#949494" d="M132.191 107.774h36.028v1.638h-36.028z"/><path fill="#949494" d="M132.191 107.774h36.028v1.638h-36.028z"/><path fill="#C4C4C4" d="M129.735 54.55h40.122v35.209h-40.122z"/><path fill="#6A6A6A" d="M196.059 98.767h28.659v3.275h-28.659z"/><path fill="#949494" d="M192.784 107.774h36.028v1.638h-36.028z"/><path fill="#949494" d="M192.784 107.774h36.028v1.638h-36.028z"/><path fill="#949494" d="M192.784 107.774h36.028v1.638h-36.028z"/><path fill="#C4C4C4" d="M190.328 54.55h40.122v35.209h-40.122z"/><path fill="#E2E2E2" d="M2 140h53.223v72.056H2zM62.592 140h53.223v72.056H62.592zM123.185 140h53.223v72.056h-53.223zM183.777 140H237v72.056h-53.223z"/><path fill="#6A6A6A" d="M14.282 190.767h28.659v3.275H14.282z"/><path fill="#949494" d="M11.007 199.774h36.028v1.638H11.007z"/><path fill="#949494" d="M11.007 199.774h36.028v1.638H11.007z"/><path fill="#949494" d="M11.007 199.774h36.028v1.638H11.007z"/><path fill="#C4C4C4" d="M8.55 146.551h40.122v35.209H8.55z"/><path fill="#6A6A6A" d="M74.874 190.767h28.659v3.275H74.874z"/><path fill="#949494" d="M71.599 199.774h36.028v1.638H71.599z"/><path fill="#949494" d="M71.599 199.774h36.028v1.638H71.599z"/><path fill="#949494" d="M71.599 199.774h36.028v1.638H71.599z"/><path fill="#C4C4C4" d="M69.143 146.551h40.122v35.209H69.143z"/><path fill="#6A6A6A" d="M135.467 190.767h28.659v3.275h-28.659z"/><path fill="#949494" d="M132.191 199.774h36.028v1.638h-36.028z"/><path fill="#949494" d="M132.191 199.774h36.028v1.638h-36.028z"/><path fill="#949494" d="M132.191 199.774h36.028v1.638h-36.028z"/><path fill="#C4C4C4" d="M129.735 146.551h40.122v35.209h-40.122z"/><path fill="#6A6A6A" d="M196.059 190.767h28.659v3.275h-28.659z"/><path fill="#949494" d="M192.784 199.774h36.028v1.638h-36.028z"/><path fill="#949494" d="M192.784 199.774h36.028v1.638h-36.028z"/><path fill="#949494" d="M192.784 199.774h36.028v1.638h-36.028z"/><path fill="#C4C4C4" d="M190.328 146.551h40.122v35.209h-40.122z"/><path fill="#E2E2E2" d="M2 230h53.223v72.056H2zM62.592 230h53.223v72.056H62.592zM123.185 230h53.223v72.056h-53.223zM183.777 230H237v72.056h-53.223z"/><path fill="#6A6A6A" d="M14.282 280.767h28.659v3.275H14.282z"/><path fill="#949494" d="M11.007 289.774h36.028v1.638H11.007z"/><path fill="#949494" d="M11.007 289.774h36.028v1.638H11.007z"/><path fill="#949494" d="M11.007 289.774h36.028v1.638H11.007z"/><path fill="#C4C4C4" d="M8.55 236.551h40.122v35.209H8.55z"/><path fill="#6A6A6A" d="M74.874 280.767h28.659v3.275H74.874z"/><path fill="#949494" d="M71.599 289.774h36.028v1.638H71.599z"/><path fill="#949494" d="M71.599 289.774h36.028v1.638H71.599z"/><path fill="#949494" d="M71.599 289.774h36.028v1.638H71.599z"/><path fill="#C4C4C4" d="M69.143 236.551h40.122v35.209H69.143z"/><path fill="#6A6A6A" d="M135.467 280.767h28.659v3.275h-28.659z"/><path fill="#949494" d="M132.191 289.774h36.028v1.638h-36.028z"/><path fill="#949494" d="M132.191 289.774h36.028v1.638h-36.028z"/><path fill="#949494" d="M132.191 289.774h36.028v1.638h-36.028z"/><path fill="#C4C4C4" d="M129.735 236.551h40.122v35.209h-40.122z"/><path fill="#6A6A6A" d="M196.059 280.767h28.659v3.275h-28.659z"/><path fill="#949494" d="M192.784 289.774h36.028v1.638h-36.028z"/><path fill="#949494" d="M192.784 289.774h36.028v1.638h-36.028z"/><path fill="#949494" d="M192.784 289.774h36.028v1.638h-36.028z"/><path fill="#C4C4C4" d="M190.328 236.551h40.122v35.209h-40.122z"/><path fill="#E2E2E2" d="M2 0h235v13.239H2z"/><path fill="#6A6A6A" d="M38.408 4.965h18.204v3.31H38.408zM2 22h43v3H2zM64.887 4.965h18.204v3.31H64.887zM91.366 4.965h18.204v3.31H91.366zM117.018 4.965h18.204v3.31h-18.204zM142.669 4.965h18.204v3.31h-18.204z"/><path fill="#949494" d="M168.32 4.137h24.824v1.655H168.32z"/><path fill="#949494" d="M168.32 4.137h24.824v1.655H168.32z"/><path fill="#949494" d="M168.32 4.137h24.824v1.655H168.32zM168.32 7.447h24.824v1.655H168.32z"/><path fill="#949494" d="M168.32 7.447h24.824v1.655H168.32z"/><path fill="#949494" d="M168.32 7.447h24.824v1.655H168.32zM2 27h17v1H2z"/><path fill="#949494" d="M2 27h17v1H2z"/><path fill="#949494" d="M2 27h17v1H2zM23 27h17v1H23z"/><path fill="#949494" d="M23 27h17v1H23z"/><path fill="#949494" d="M23 27h17v1H23zM214.658 5.792h16.549v1.655h-16.549z"/><path fill="#949494" d="M214.658 5.792h16.549v1.655h-16.549z"/><path fill="#949494" d="M214.658 5.792h16.549v1.655h-16.549z"/><path fill="#949494" d="M211.349 3.31h21.514v5.792h-21.514z"/><path fill="#949494" d="M211.349 3.31h21.514v5.792h-21.514z"/><path fill="#949494" d="M211.349 3.31h21.514v5.792h-21.514z"/><path d="M20.204 2.482l1.3 3.145h4.21l-3.405 1.944 1.3 3.144-3.405-1.943-3.404 1.943 1.3-3.144-3.404-1.944h4.208l1.3-3.145z" fill="#B5B5B5"/><path fill="#C4C4C4" d="M215.486 4.965h13.239v2.482h-13.239z"/><ellipse cx="198.109" cy="6.206" rx="2.482" ry="2.069" fill="#C4C4C4"/><ellipse cx="204.729" cy="6.206" rx="2.482" ry="2.069" fill="#C4C4C4"/><path fill="#6A6A6A" d="M39.164 337.293h16.814v3.057H39.164zM39.164 344.935h16.814v3.057H39.164zM67.441 337.293h16.814v3.057H67.441zM67.441 344.935h16.814v3.057H67.441zM96.483 337.293h16.814v3.057H96.483zM96.483 344.935h16.814v3.057H96.483z"/><path fill="#949494" d="M159.152 336.528h22.928v1.529h-22.928z"/><path fill="#949494" d="M159.152 336.528h22.928v1.529h-22.928z"/><path fill="#949494" d="M159.152 336.528h22.928v1.529h-22.928zM159.152 339.585h22.928v1.529h-22.928z"/><path fill="#949494" d="M159.152 339.585h22.928v1.529h-22.928z"/><path fill="#949494" d="M159.152 339.585h22.928v1.529h-22.928zM159.152 345.699h22.928v1.529h-22.928z"/><path fill="#949494" d="M159.152 345.699h22.928v1.529h-22.928z"/><path fill="#949494" d="M159.152 345.699h22.928v1.529h-22.928zM201.187 344.171h15.285v1.529h-15.285z"/><path fill="#949494" d="M201.187 344.171h15.285v1.529h-15.285z"/><path fill="#949494" d="M201.187 344.171h15.285v1.529h-15.285z"/><path fill="#949494" d="M198.129 341.878H218v5.35h-19.871z"/><path fill="#949494" d="M198.129 341.878H218v5.35h-19.871z"/><path fill="#949494" d="M198.129 341.878H218v5.35h-19.871z"/><path d="M22.35 335l1.2 2.904h3.888l-3.145 1.796 1.201 2.904-3.144-1.795-3.145 1.795 1.201-2.904-3.144-1.796h3.887l1.2-2.904z" fill="#B5B5B5"/><path fill="#C4C4C4" d="M201.951 343.407h12.228v2.293h-12.228z"/><ellipse cx="133.931" cy="342.26" rx="2.293" ry="1.911" fill="#C4C4C4"/><ellipse cx="142.338" cy="342.26" rx="2.293" ry="1.911" fill="#C4C4C4"/><ellipse cx="125.525" cy="342.26" rx="2.293" ry="1.911" fill="#C4C4C4"/></svg>