<svg width="238" height="372" fill="none" xmlns="http://www.w3.org/2000/svg"><path fill="#E2E2E2" d="M0 41h55v233H0zM1 313h237v59H1zM70 43h36.673v49.65H70zM111.751 43h36.673v49.65h-36.673zM153.501 43h36.673v49.65h-36.673zM195.252 43h36.673v49.65h-36.673z"/><path fill="#6A6A6A" d="M78.463 77.98H98.21v2.257H78.463z"/><path fill="#949494" d="M76.206 84.187h24.825v1.128H76.206z"/><path fill="#949494" d="M76.206 84.187h24.825v1.128H76.206z"/><path fill="#949494" d="M76.206 84.187h24.825v1.128H76.206z"/><path fill="#C4C4C4" d="M74.514 47.514h27.646v24.261H74.514z"/><path fill="#6A6A6A" d="M120.214 77.98h19.747v2.257h-19.747z"/><path fill="#949494" d="M117.957 84.187h24.825v1.128h-24.825z"/><path fill="#949494" d="M117.957 84.187h24.825v1.128h-24.825z"/><path fill="#949494" d="M117.957 84.187h24.825v1.128h-24.825z"/><path fill="#C4C4C4" d="M116.265 47.514h27.646v24.261h-27.646z"/><path fill="#6A6A6A" d="M161.964 77.98h19.747v2.257h-19.747z"/><path fill="#949494" d="M159.708 84.187h24.825v1.128h-24.825z"/><path fill="#949494" d="M159.708 84.187h24.825v1.128h-24.825z"/><path fill="#949494" d="M159.708 84.187h24.825v1.128h-24.825z"/><path fill="#C4C4C4" d="M158.015 47.514h27.646v24.261h-27.646z"/><path fill="#6A6A6A" d="M203.715 77.98h19.747v2.257h-19.747z"/><path fill="#949494" d="M201.459 84.187h24.825v1.128h-24.825z"/><path fill="#949494" d="M201.459 84.187h24.825v1.128h-24.825z"/><path fill="#949494" d="M201.459 84.187h24.825v1.128h-24.825z"/><path fill="#C4C4C4" d="M199.766 47.514h27.646v24.261h-27.646z"/><path fill="#E2E2E2" d="M70 106.392h36.673v49.65H70zM111.751 106.392h36.673v49.65h-36.673zM153.501 106.392h36.673v49.65h-36.673zM195.252 106.392h36.673v49.65h-36.673z"/><path fill="#6A6A6A" d="M78.463 141.373H98.21v2.257H78.463z"/><path fill="#949494" d="M76.206 147.579h24.825v1.128H76.206z"/><path fill="#949494" d="M76.206 147.579h24.825v1.128H76.206z"/><path fill="#949494" d="M76.206 147.579h24.825v1.128H76.206z"/><path fill="#C4C4C4" d="M74.514 110.906h27.646v24.261H74.514z"/><path fill="#6A6A6A" d="M120.214 141.373h19.747v2.257h-19.747z"/><path fill="#949494" d="M117.957 147.579h24.825v1.128h-24.825z"/><path fill="#949494" d="M117.957 147.579h24.825v1.128h-24.825z"/><path fill="#949494" d="M117.957 147.579h24.825v1.128h-24.825z"/><path fill="#C4C4C4" d="M116.265 110.906h27.646v24.261h-27.646z"/><path fill="#6A6A6A" d="M161.964 141.373h19.747v2.257h-19.747z"/><path fill="#949494" d="M159.708 147.579h24.825v1.128h-24.825z"/><path fill="#949494" d="M159.708 147.579h24.825v1.128h-24.825z"/><path fill="#949494" d="M159.708 147.579h24.825v1.128h-24.825z"/><path fill="#C4C4C4" d="M158.015 110.906h27.646v24.261h-27.646z"/><path fill="#6A6A6A" d="M203.715 141.373h19.747v2.257h-19.747z"/><path fill="#949494" d="M201.459 147.579h24.825v1.128h-24.825z"/><path fill="#949494" d="M201.459 147.579h24.825v1.128h-24.825z"/><path fill="#949494" d="M201.459 147.579h24.825v1.128h-24.825z"/><path fill="#C4C4C4" d="M199.766 110.906h27.646v24.261h-27.646z"/><path fill="#E2E2E2" d="M70 168.406h36.673v49.65H70zM111.751 168.406h36.673v49.65h-36.673zM153.501 168.406h36.673v49.65h-36.673zM195.252 168.406h36.673v49.65h-36.673z"/><path fill="#6A6A6A" d="M78.463 203.387H98.21v2.257H78.463z"/><path fill="#949494" d="M76.206 209.593h24.825v1.128H76.206z"/><path fill="#949494" d="M76.206 209.593h24.825v1.128H76.206z"/><path fill="#949494" d="M76.206 209.593h24.825v1.128H76.206z"/><path fill="#C4C4C4" d="M74.514 172.92h27.646v24.261H74.514z"/><path fill="#6A6A6A" d="M120.214 203.387h19.747v2.257h-19.747z"/><path fill="#949494" d="M117.957 209.593h24.825v1.128h-24.825z"/><path fill="#949494" d="M117.957 209.593h24.825v1.128h-24.825z"/><path fill="#949494" d="M117.957 209.593h24.825v1.128h-24.825z"/><path fill="#C4C4C4" d="M116.265 172.92h27.646v24.261h-27.646z"/><path fill="#6A6A6A" d="M161.964 203.387h19.747v2.257h-19.747z"/><path fill="#949494" d="M159.708 209.593h24.825v1.128h-24.825z"/><path fill="#949494" d="M159.708 209.593h24.825v1.128h-24.825z"/><path fill="#949494" d="M159.708 209.593h24.825v1.128h-24.825z"/><path fill="#C4C4C4" d="M158.015 172.92h27.646v24.261h-27.646z"/><path fill="#6A6A6A" d="M203.715 203.387h19.747v2.257h-19.747z"/><path fill="#949494" d="M201.459 209.593h24.825v1.128h-24.825z"/><path fill="#949494" d="M201.459 209.593h24.825v1.128h-24.825z"/><path fill="#949494" d="M201.459 209.593h24.825v1.128h-24.825z"/><path fill="#C4C4C4" d="M199.766 172.92h27.646v24.261h-27.646z"/><path fill="#E2E2E2" d="M.752 0h235v13.239h-235z"/><path fill="#6A6A6A" d="M37.16 4.965h18.204v3.31H37.16zM.752 22h43v3h-43zM63.639 4.965h18.204v3.31H63.639zM90.118 4.965h18.204v3.31H90.118zM115.77 4.965h18.204v3.31H115.77zM141.421 4.965h18.204v3.31h-18.204z"/><path fill="#949494" d="M167.072 4.137h24.824v1.655h-24.824z"/><path fill="#949494" d="M167.072 4.137h24.824v1.655h-24.824z"/><path fill="#949494" d="M167.072 4.137h24.824v1.655h-24.824zM167.072 7.447h24.824v1.655h-24.824z"/><path fill="#949494" d="M167.072 7.447h24.824v1.655h-24.824z"/><path fill="#949494" d="M167.072 7.447h24.824v1.655h-24.824zM.752 27h17v1h-17z"/><path fill="#949494" d="M.752 27h17v1h-17z"/><path fill="#949494" d="M.752 27h17v1h-17zM21.752 27h17v1h-17z"/><path fill="#949494" d="M21.752 27h17v1h-17z"/><path fill="#949494" d="M21.752 27h17v1h-17zM6 62h17v1H6z"/><path fill="#949494" d="M6 62h17v1H6z"/><path fill="#949494" d="M6 62h17v1H6zM27 62h17v1H27z"/><path fill="#949494" d="M27 62h17v1H27z"/><path fill="#949494" d="M27 62h17v1H27zM6 91h17v1H6z"/><path fill="#949494" d="M6 91h17v1H6z"/><path fill="#949494" d="M6 91h17v1H6zM27 91h17v1H27z"/><path fill="#949494" d="M27 91h17v1H27z"/><path fill="#949494" d="M27 91h17v1H27zM213.41 5.792h16.549v1.655H213.41z"/><path fill="#949494" d="M213.41 5.792h16.549v1.655H213.41z"/><path fill="#949494" d="M213.41 5.792h16.549v1.655H213.41z"/><path fill="#949494" d="M210.101 3.31h21.514v5.792h-21.514z"/><path fill="#949494" d="M210.101 3.31h21.514v5.792h-21.514z"/><path fill="#949494" d="M210.101 3.31h21.514v5.792h-21.514z"/><path d="M18.956 2.482l1.3 3.145h4.21L21.06 7.571l1.3 3.144-3.405-1.943-3.404 1.943 1.3-3.144-3.404-1.944h4.208l1.3-3.145z" fill="#B5B5B5"/><path fill="#C4C4C4" d="M214.238 4.965h13.239v2.482h-13.239z"/><ellipse cx="196.861" cy="6.206" rx="2.482" ry="2.069" fill="#C4C4C4"/><ellipse cx="203.481" cy="6.206" rx="2.482" ry="2.069" fill="#C4C4C4"/><path fill="#6A6A6A" d="M37.916 337.293H54.73v3.057H37.916zM37.916 344.935H54.73v3.057H37.916zM66.193 337.293h16.814v3.057H66.193zM66.193 344.935h16.814v3.057H66.193zM95.235 337.293h16.814v3.057H95.235zM95.235 344.935h16.814v3.057H95.235z"/><path fill="#949494" d="M157.904 336.528h22.928v1.529h-22.928z"/><path fill="#949494" d="M157.904 336.528h22.928v1.529h-22.928z"/><path fill="#949494" d="M157.904 336.528h22.928v1.529h-22.928zM157.904 339.585h22.928v1.529h-22.928z"/><path fill="#949494" d="M157.904 339.585h22.928v1.529h-22.928z"/><path fill="#949494" d="M157.904 339.585h22.928v1.529h-22.928zM157.904 345.699h22.928v1.529h-22.928z"/><path fill="#949494" d="M157.904 345.699h22.928v1.529h-22.928z"/><path fill="#949494" d="M157.904 345.699h22.928v1.529h-22.928zM199.938 344.171h15.285v1.529h-15.285z"/><path fill="#949494" d="M199.938 344.171h15.285v1.529h-15.285z"/><path fill="#949494" d="M199.938 344.171h15.285v1.529h-15.285z"/><path fill="#949494" d="M196.881 341.878h19.871v5.35h-19.871z"/><path fill="#949494" d="M196.881 341.878h19.871v5.35h-19.871z"/><path fill="#949494" d="M196.881 341.878h19.871v5.35h-19.871z"/><path d="M21.102 335l1.2 2.904h3.888l-3.145 1.796 1.201 2.904-3.144-1.795-3.145 1.795 1.201-2.904-3.144-1.796H19.9L21.1 335z" fill="#B5B5B5"/><path fill="#C4C4C4" d="M200.703 343.407h12.228v2.293h-12.228z"/><ellipse cx="132.683" cy="342.26" rx="2.293" ry="1.911" fill="#C4C4C4"/><ellipse cx="141.09" cy="342.26" rx="2.293" ry="1.911" fill="#C4C4C4"/><ellipse cx="124.277" cy="342.26" rx="2.293" ry="1.911" fill="#C4C4C4"/><path fill="#6A6A6A" d="M6 50h43v3H6zM6 78h43v3H6z"/><path fill="#949494" d="M27 123h17v1H27z"/><path fill="#949494" d="M27 123h17v1H27z"/><path fill="#949494" d="M27 123h17v1H27z"/><path fill="#6A6A6A" d="M6 110h43v3H6z"/></svg>