<svg width="115" height="35" fill="none" xmlns="http://www.w3.org/2000/svg"><path fill="#E2E2E2" d="M.842.132H26.5v34.737H.842zM30.053.132h25.658v34.737H30.053zM59.263.132h25.658v34.737H59.263zM88.474.132h25.658v34.737H88.474z"/><path fill="#6A6A6A" d="M6.763 24.605h13.816v1.579H6.763z"/><path fill="#949494" d="M5.184 28.947h17.368v.789H5.184z"/><path fill="#949494" d="M5.184 28.947h17.368v.789H5.184z"/><path fill="#949494" d="M5.184 28.947h17.368v.789H5.184zM5.184 30.921h17.368v.789H5.184z"/><path fill="#949494" d="M5.184 30.921h17.368v.789H5.184z"/><path fill="#949494" d="M5.184 30.921h17.368v.789H5.184z"/><path fill="#C4C4C4" d="M4 3.29h19.342v16.974H4z"/><path d="M13.276 7.237l1.286 3.546h4.158l-3.364 2.191 1.285 3.546-3.365-2.191-3.364 2.19 1.285-3.545-3.364-2.191h4.158l1.285-3.546z" fill="#B5B5B5"/><path fill="#6A6A6A" d="M35.974 24.605H49.79v1.579H35.974z"/><path fill="#949494" d="M34.395 28.947h17.368v.789H34.395z"/><path fill="#949494" d="M34.395 28.947h17.368v.789H34.395z"/><path fill="#949494" d="M34.395 28.947h17.368v.789H34.395zM34.395 30.921h17.368v.789H34.395z"/><path fill="#949494" d="M34.395 30.921h17.368v.789H34.395z"/><path fill="#949494" d="M34.395 30.921h17.368v.789H34.395z"/><path fill="#C4C4C4" d="M33.21 3.29h19.342v16.974H33.21z"/><path d="M42.487 7.237l1.285 3.546h4.158l-3.364 2.191 1.285 3.546-3.364-2.191-3.364 2.19 1.285-3.545-3.365-2.191h4.159l1.285-3.546z" fill="#B5B5B5"/><path fill="#6A6A6A" d="M65.184 24.605H79v1.579H65.184z"/><path fill="#949494" d="M63.605 28.947h17.368v.789H63.605z"/><path fill="#949494" d="M63.605 28.947h17.368v.789H63.605z"/><path fill="#949494" d="M63.605 28.947h17.368v.789H63.605zM63.605 30.921h17.368v.789H63.605z"/><path fill="#949494" d="M63.605 30.921h17.368v.789H63.605z"/><path fill="#949494" d="M63.605 30.921h17.368v.789H63.605z"/><path fill="#C4C4C4" d="M62.421 3.29h19.342v16.974H62.421z"/><path d="M71.697 7.237l1.285 3.546h4.159l-3.364 2.191 1.285 3.546-3.365-2.191-3.364 2.19 1.285-3.545-3.364-2.191h4.158l1.285-3.546z" fill="#B5B5B5"/><path fill="#6A6A6A" d="M94.394 24.605h13.816v1.579H94.394z"/><path fill="#949494" d="M92.816 28.947h17.368v.789H92.816z"/><path fill="#949494" d="M92.816 28.947h17.368v.789H92.816z"/><path fill="#949494" d="M92.816 28.947h17.368v.789H92.816zM92.816 30.921h17.368v.789H92.816z"/><path fill="#949494" d="M92.816 30.921h17.368v.789H92.816z"/><path fill="#949494" d="M92.816 30.921h17.368v.789H92.816z"/><path fill="#C4C4C4" d="M91.632 3.29h19.342v16.974H91.632z"/><path d="M100.908 7.237l1.285 3.546h4.158l-3.364 2.191 1.285 3.546-3.364-2.191-3.365 2.19 1.285-3.545-3.364-2.191h4.159l1.285-3.546z" fill="#B5B5B5"/></svg>