<svg width="253" height="88" fill="none" xmlns="http://www.w3.org/2000/svg"><path fill="#E2E2E2" d="M0 0h144v88H0z"/><path fill="#6A6A6A" d="M13 9h60v4H13z"/><path fill="#949494" d="M13 26h117v2H13z"/><path fill="#949494" d="M13 26h117v2H13z"/><path fill="#949494" d="M13 26h117v2H13zM13 31h117v2H13z"/><path fill="#949494" d="M13 31h117v2H13z"/><path fill="#949494" d="M13 31h117v2H13zM13 36h117v2H13z"/><path fill="#949494" d="M13 36h117v2H13z"/><path fill="#949494" d="M13 36h117v2H13zM13 41h117v2H13z"/><path fill="#949494" d="M13 41h117v2H13z"/><path fill="#949494" d="M13 41h117v2H13zM13 46h117v2H13z"/><path fill="#949494" d="M13 46h117v2H13z"/><path fill="#949494" d="M13 46h117v2H13zM14 57h57v2H14z"/><path fill="#949494" d="M14 57h57v2H14z"/><path fill="#949494" d="M14 57h57v2H14zM14 62h57v2H14z"/><path fill="#949494" d="M14 62h57v2H14z"/><path fill="#949494" d="M14 62h57v2H14zM14 67h57v2H14z"/><path fill="#949494" d="M14 67h57v2H14z"/><path fill="#949494" d="M14 67h57v2H14zM14 72h57v2H14z"/><path fill="#949494" d="M14 72h57v2H14z"/><path fill="#949494" d="M14 72h57v2H14zM77 57h53v2H77z"/><path fill="#949494" d="M77 57h53v2H77z"/><path fill="#949494" d="M77 57h53v2H77zM77 62h53v2H77z"/><path fill="#949494" d="M77 62h53v2H77z"/><path fill="#949494" d="M77 62h53v2H77zM77 67h53v2H77z"/><path fill="#949494" d="M77 67h53v2H77z"/><path fill="#949494" d="M77 67h53v2H77zM77 72h53v2H77z"/><path fill="#949494" d="M77 72h53v2H77z"/><path fill="#949494" d="M77 72h53v2H77z"/><path fill="#C4C4C4" d="M153 0h100v88H153z"/><path d="M201 20l6.735 18.657h21.797l-17.634 11.53 6.736 18.657L201 57.314l-17.634 11.53 6.736-18.657-17.634-11.53h21.797L201 20z" fill="#B5B5B5"/></svg>