<svg width="174" height="94" fill="none" xmlns="http://www.w3.org/2000/svg"><path fill="#E2E2E2" d="M0 0h38.865v44.288H0z"/><path fill="#6A6A6A" d="M6.327 34.346h26.212v3.615H6.327z"/><path fill="#C4C4C4" d="M3.615 3.615H35.25v28.019H3.615z"/><path d="M19.433 6.327l2.942 8.119h9.522l-7.703 5.018 2.942 8.119-7.703-5.018-7.704 5.018 2.943-8.12-7.703-5.017h9.522l2.942-8.12z" fill="#B5B5B5"/><path fill="#E2E2E2" d="M0 49.712h38.865V94H0z"/><path fill="#6A6A6A" d="M6.327 84.058h26.212v3.615H6.327z"/><path fill="#C4C4C4" d="M3.615 53.327H35.25v28.019H3.615z"/><path d="M19.433 56.038l2.942 8.12h9.522l-7.703 5.017 2.942 8.12-7.703-5.018-7.704 5.017 2.943-8.119-7.703-5.017h9.522l2.942-8.12z" fill="#B5B5B5"/><path fill="#E2E2E2" d="M45 0h38.865v44.288H45z"/><path fill="#6A6A6A" d="M51.327 34.346h26.212v3.615H51.327z"/><path fill="#C4C4C4" d="M48.615 3.615H80.25v28.019H48.615z"/><path d="M64.433 6.327l2.942 8.119h9.522l-7.703 5.018 2.942 8.119-7.703-5.018-7.704 5.018 2.943-8.12-7.703-5.017h9.521l2.943-8.12z" fill="#B5B5B5"/><path fill="#E2E2E2" d="M45 49.712h38.865V94H45z"/><path fill="#6A6A6A" d="M51.327 84.058h26.212v3.615H51.327z"/><path fill="#C4C4C4" d="M48.615 53.327H80.25v28.019H48.615z"/><path d="M64.433 56.038l2.942 8.12h9.522l-7.703 5.017 2.942 8.12-7.703-5.018-7.704 5.017 2.943-8.119-7.703-5.017h9.521l2.943-8.12z" fill="#B5B5B5"/><path fill="#E2E2E2" d="M90 0h38.865v44.288H90z"/><path fill="#6A6A6A" d="M96.327 34.346h26.212v3.615H96.327z"/><path fill="#C4C4C4" d="M93.615 3.615h31.635v28.019H93.615z"/><path d="M109.433 6.327l2.942 8.119h9.522l-7.703 5.018 2.942 8.119-7.703-5.018-7.703 5.018 2.942-8.12-7.703-5.017h9.521l2.943-8.12z" fill="#B5B5B5"/><path fill="#E2E2E2" d="M90 49.712h38.865V94H90z"/><path fill="#6A6A6A" d="M96.327 84.058h26.212v3.615H96.327z"/><path fill="#C4C4C4" d="M93.615 53.327h31.635v28.019H93.615z"/><path d="M109.433 56.038l2.942 8.12h9.522l-7.703 5.017 2.942 8.12-7.703-5.018-7.703 5.017 2.942-8.119-7.703-5.017h9.521l2.943-8.12z" fill="#B5B5B5"/><path fill="#E2E2E2" d="M135 0h38.865v44.288H135z"/><path fill="#6A6A6A" d="M141.327 34.346h26.212v3.615h-26.212z"/><path fill="#C4C4C4" d="M138.615 3.615h31.635v28.019h-31.635z"/><path d="M154.433 6.327l2.942 8.119h9.522l-7.703 5.018 2.942 8.119-7.703-5.018-7.703 5.018 2.942-8.12-7.703-5.017h9.521l2.943-8.12z" fill="#B5B5B5"/><path fill="#E2E2E2" d="M135 49.712h38.865V94H135z"/><path fill="#6A6A6A" d="M141.327 84.058h26.212v3.615h-26.212z"/><path fill="#C4C4C4" d="M138.615 53.327h31.635v28.019h-31.635z"/><path d="M154.433 56.038l2.942 8.12h9.522l-7.703 5.017 2.942 8.12-7.703-5.018-7.703 5.017 2.942-8.119-7.703-5.017h9.521l2.943-8.12z" fill="#B5B5B5"/></svg>