<svg width="287" height="88" fill="none" xmlns="http://www.w3.org/2000/svg"><path fill="#E2E2E2" d="M0 0h65v88H0zM74 0h65v88H74zM148 0h65v88h-65zM222 0h65v88h-65z"/><path fill="#6A6A6A" d="M15 62h35v4H15z"/><path fill="#949494" d="M11 73h44v2H11z"/><path fill="#949494" d="M11 73h44v2H11z"/><path fill="#949494" d="M11 73h44v2H11z"/><path fill="#C4C4C4" d="M8 8h49v43H8z"/><path fill="#6A6A6A" d="M89 62h35v4H89z"/><path fill="#949494" d="M85 73h44v2H85z"/><path fill="#949494" d="M85 73h44v2H85z"/><path fill="#949494" d="M85 73h44v2H85z"/><path fill="#C4C4C4" d="M82 8h49v43H82z"/><path fill="#6A6A6A" d="M163 62h35v4h-35z"/><path fill="#949494" d="M159 73h44v2h-44z"/><path fill="#949494" d="M159 73h44v2h-44z"/><path fill="#949494" d="M159 73h44v2h-44z"/><path fill="#C4C4C4" d="M156 8h49v43h-49z"/><path fill="#6A6A6A" d="M237 62h35v4h-35z"/><path fill="#949494" d="M233 73h44v2h-44z"/><path fill="#949494" d="M233 73h44v2h-44z"/><path fill="#949494" d="M233 73h44v2h-44z"/><path fill="#C4C4C4" d="M230 8h49v43h-49z"/></svg>