<svg width="278" height="92" fill="none" xmlns="http://www.w3.org/2000/svg"><path fill="#E2E2E2" d="M0 4h278v88H0z"/><path fill="#6A6A6A" d="M11 15h70v4H11z"/><path fill="#949494" d="M11 27h168v2H11z"/><path fill="#949494" d="M11 27h168v2H11z"/><path fill="#949494" d="M11 27h168v2H11z"/><path fill="#6A6A6A" d="M36 41h70v4H36z"/><path fill="#949494" d="M36 53h168v2H36z"/><path fill="#949494" d="M36 53h168v2H36z"/><path fill="#949494" d="M36 53h168v2H36zM11 32h168v2H11z"/><path fill="#949494" d="M11 32h168v2H11z"/><path fill="#949494" d="M11 32h168v2H11z"/><path fill="#6A6A6A" d="M12 62h70v4H12z"/><path fill="#949494" d="M12 74h168v2H12z"/><path fill="#949494" d="M12 74h168v2H12z"/><path fill="#949494" d="M12 74h168v2H12zM12 79h168v2H12z"/><path fill="#949494" d="M12 79h168v2H12z"/><path fill="#949494" d="M12 79h168v2H12z"/><path d="M209.744 24.372v1.764h-15.516v-1.764h15.516zm-6.84-6.48l-.036 14.76h-1.764l-.036-14.76h1.836zM211.744 70.372v1.764h-15.516v-1.764h15.516zm-6.84-6.48l-.036 14.76h-1.764l-.036-14.76h1.836z" fill="#000"/></svg>