<svg width="284" height="79" fill="none" xmlns="http://www.w3.org/2000/svg"><path fill="#E2E2E2" d="M0 0h284v16H0z"/><path fill="#6A6A6A" d="M44 6h22v4H44zM76 6h22v4H76zM108 6h22v4h-22zM139 6h22v4h-22zM170 6h22v4h-22z"/><path fill="#949494" d="M201 5h30v2h-30z"/><path fill="#949494" d="M201 5h30v2h-30z"/><path fill="#949494" d="M201 5h30v2h-30zM201 9h30v2h-30z"/><path fill="#949494" d="M201 9h30v2h-30z"/><path fill="#949494" d="M201 9h30v2h-30zM257 7h20v2h-20z"/><path fill="#949494" d="M257 7h20v2h-20z"/><path fill="#949494" d="M257 7h20v2h-20z"/><path fill="#949494" d="M253 4h26v7h-26z"/><path fill="#949494" d="M253 4h26v7h-26z"/><path fill="#949494" d="M253 4h26v7h-26z"/><path d="M22 3l1.572 3.8h5.085l-4.114 2.35 1.572 3.8L22 10.6l-4.114 2.35 1.571-3.8-4.114-2.35h5.085L22 3z" fill="#B5B5B5"/><path fill="#C4C4C4" d="M258 6h16v3h-16z"/><ellipse cx="237" cy="7.5" rx="3" ry="2.5" fill="#C4C4C4"/><ellipse cx="245" cy="7.5" rx="3" ry="2.5" fill="#C4C4C4"/><path fill="#E2E2E2" d="M0 28h284v16H0z"/><path fill="#949494" d="M156 33h30v2h-30z"/><path fill="#949494" d="M156 33h30v2h-30z"/><path fill="#949494" d="M156 33h30v2h-30zM156 37h30v2h-30z"/><path fill="#949494" d="M156 37h30v2h-30z"/><path fill="#949494" d="M156 37h30v2h-30zM270 35h7v1h-7z"/><path fill="#949494" d="M270 35h7v1h-7z"/><path fill="#949494" d="M270 35h7v1h-7zM270 37h7v1h-7z"/><path fill="#949494" d="M270 37h7v1h-7z"/><path fill="#949494" d="M270 37h7v1h-7zM270 33h7v1h-7z"/><path fill="#949494" d="M270 33h7v1h-7z"/><path fill="#949494" d="M270 33h7v1h-7zM208 32h26v7h-26z"/><path fill="#949494" d="M208 32h26v7h-26z"/><path fill="#949494" d="M208 32h26v7h-26z"/><path d="M22 31l1.572 3.8h5.085l-4.114 2.35 1.572 3.8L22 38.6l-4.114 2.35 1.571-3.8-4.114-2.35h5.085L22 31z" fill="#B5B5B5"/><path fill="#C4C4C4" d="M213 34h16v3h-16z"/><ellipse cx="192" cy="35.5" rx="3" ry="2.5" fill="#C4C4C4"/><ellipse cx="200" cy="35.5" rx="3" ry="2.5" fill="#C4C4C4"/><path fill="#6A6A6A" d="M43 62h22v4H43zM43 72h22v4H43zM80 62h22v4H80zM80 72h22v4H80zM118 62h22v4h-22zM118 72h22v4h-22z"/><path fill="#949494" d="M200 61h30v2h-30z"/><path fill="#949494" d="M200 61h30v2h-30z"/><path fill="#949494" d="M200 61h30v2h-30zM200 65h30v2h-30z"/><path fill="#949494" d="M200 65h30v2h-30z"/><path fill="#949494" d="M200 65h30v2h-30zM200 73h30v2h-30z"/><path fill="#949494" d="M200 73h30v2h-30z"/><path fill="#949494" d="M200 73h30v2h-30zM200 77h30v2h-30z"/><path fill="#949494" d="M200 77h30v2h-30z"/><path fill="#949494" d="M200 77h30v2h-30zM255 71h20v2h-20z"/><path fill="#949494" d="M255 71h20v2h-20z"/><path fill="#949494" d="M255 71h20v2h-20z"/><path fill="#949494" d="M251 68h26v7h-26z"/><path fill="#949494" d="M251 68h26v7h-26z"/><path fill="#949494" d="M251 68h26v7h-26z"/><path d="M21 59l1.572 3.8h5.085l-4.114 2.35 1.572 3.8L21 66.6l-4.114 2.35 1.571-3.8-4.114-2.35h5.085L21 59z" fill="#B5B5B5"/><path fill="#C4C4C4" d="M256 70h16v3h-16z"/><ellipse cx="167" cy="68.5" rx="3" ry="2.5" fill="#C4C4C4"/><ellipse cx="178" cy="68.5" rx="3" ry="2.5" fill="#C4C4C4"/><ellipse cx="156" cy="68.5" rx="3" ry="2.5" fill="#C4C4C4"/></svg>