<svg width="258" height="45" fill="none" xmlns="http://www.w3.org/2000/svg"><rect x="142" width="45" height="45" rx="8" fill="#C4C4C4"/><path d="M165 8l3.368 9.674h10.898l-8.817 5.979 3.368 9.673L165 27.347l-8.817 5.98 3.368-9.674-8.817-5.98h10.898L165 8z" fill="#F3F3F3"/><rect x="213" width="45" height="45" rx="8" fill="#C4C4C4"/><path d="M236 8l3.368 9.674h10.898l-8.817 5.979 3.368 9.673L236 27.347l-8.817 5.98 3.368-9.674-8.817-5.98h10.898L236 8z" fill="#F3F3F3"/><rect x="71" width="45" height="45" rx="8" fill="#C4C4C4"/><path d="M94 8l3.368 9.674h10.898l-8.817 5.979 3.368 9.673L94 27.347l-8.817 5.98 3.368-9.674-8.817-5.98h10.898L94 8z" fill="#F3F3F3"/><rect width="45" height="45" rx="8" fill="#C4C4C4"/><path d="M23 8l3.368 9.674h10.898l-8.817 5.979 3.368 9.673L23 27.347l-8.817 5.98 3.368-9.674-8.817-5.98h10.898L23 8z" fill="#F3F3F3"/></svg>