<svg width="287" height="88" fill="none" xmlns="http://www.w3.org/2000/svg"><path fill="#E2E2E2" d="M0 0h65v88H0z"/><path fill="#6A6A6A" d="M8 56h35v4H8zM8 77h18v4H8z"/><path fill="#949494" d="M8 66h44v2H8z"/><path fill="#949494" d="M8 66h44v2H8z"/><path fill="#949494" d="M8 66h44v2H8z"/><path fill="#C4C4C4" d="M8 8h49v43H8z"/><path d="M31.5 18l3.255 8.983H45.29l-8.523 5.551 3.256 8.983-8.523-5.551-8.523 5.551 3.256-8.983-8.523-5.551h10.534L31.5 18z" fill="#B5B5B5"/><path fill="#828181" d="M39 75h18v8H39z"/><path fill="#828181" d="M39 75h18v8H39z"/><path d="M51.012 78.478v.686h-6.034v-.686h6.034zm-2.66-2.52l-.014 5.74h-.686l-.014-5.74h.714z" fill="#fff"/><path fill="#6A6A6A" d="M8 5h9v11H8z"/><path fill="#E2E2E2" d="M74 0h65v88H74z"/><path fill="#6A6A6A" d="M82 56h35v4H82zM82 77h18v4H82z"/><path fill="#949494" d="M82 66h44v2H82z"/><path fill="#949494" d="M82 66h44v2H82z"/><path fill="#949494" d="M82 66h44v2H82z"/><path fill="#C4C4C4" d="M82 8h49v43H82z"/><path d="M105.5 18l3.255 8.983h10.535l-8.523 5.551 3.256 8.983-8.523-5.551-8.523 5.551 3.256-8.983-8.523-5.551h10.535L105.5 18z" fill="#B5B5B5"/><path fill="#828181" d="M113 75h18v8h-18z"/><path fill="#828181" d="M113 75h18v8h-18z"/><path d="M125.012 78.478v.686h-6.034v-.686h6.034zm-2.66-2.52l-.014 5.74h-.686l-.014-5.74h.714z" fill="#fff"/><path fill="#6A6A6A" d="M82 5h9v11h-9z"/><path fill="#E2E2E2" d="M148 0h65v88h-65z"/><path fill="#6A6A6A" d="M156 56h35v4h-35zM156 77h18v4h-18z"/><path fill="#949494" d="M156 66h44v2h-44z"/><path fill="#949494" d="M156 66h44v2h-44z"/><path fill="#949494" d="M156 66h44v2h-44z"/><path fill="#C4C4C4" d="M156 8h49v43h-49z"/><path d="M179.5 18l3.255 8.983h10.535l-8.523 5.551 3.256 8.983-8.523-5.551-8.523 5.551 3.256-8.983-8.523-5.551h10.535L179.5 18z" fill="#B5B5B5"/><path fill="#828181" d="M187 75h18v8h-18z"/><path fill="#828181" d="M187 75h18v8h-18z"/><path d="M199.012 78.478v.686h-6.034v-.686h6.034zm-2.66-2.52l-.014 5.74h-.686l-.014-5.74h.714z" fill="#fff"/><path fill="#6A6A6A" d="M156 5h9v11h-9z"/><path fill="#E2E2E2" d="M222 0h65v88h-65z"/><path fill="#6A6A6A" d="M230 56h35v4h-35zM230 77h18v4h-18z"/><path fill="#949494" d="M230 66h44v2h-44z"/><path fill="#949494" d="M230 66h44v2h-44z"/><path fill="#949494" d="M230 66h44v2h-44z"/><path fill="#C4C4C4" d="M230 8h49v43h-49z"/><path d="M253.5 18l3.255 8.983h10.535l-8.523 5.551 3.256 8.983-8.523-5.551-8.523 5.551 3.256-8.983-8.523-5.551h10.535L253.5 18z" fill="#B5B5B5"/><path fill="#828181" d="M261 75h18v8h-18z"/><path fill="#828181" d="M261 75h18v8h-18z"/><path d="M273.012 78.478v.686h-6.034v-.686h6.034zm-2.66-2.52l-.014 5.74h-.686l-.014-5.74h.714z" fill="#fff"/><path fill="#6A6A6A" d="M230 5h9v11h-9z"/></svg>